<?xml version="1.0" encoding="UTF-8" standalone="no"?>
<!-- Created with Inkscape (http://www.inkscape.org/) -->

<svg
   width="257"
   height="67"
   viewBox="0 0 67.997916 17.727083"
   version="1.1"
   id="svg1"
   xml:space="preserve"
   inkscape:version="1.3.2 (091e20e, 2023-11-25, custom)"
   sodipodi:docname="logo.svg"
   xmlns:inkscape="http://www.inkscape.org/namespaces/inkscape"
   xmlns:sodipodi="http://sodipodi.sourceforge.net/DTD/sodipodi-0.dtd"
   xmlns="http://www.w3.org/2000/svg"
   xmlns:svg="http://www.w3.org/2000/svg"><sodipodi:namedview
     id="namedview1"
     pagecolor="#ffffff"
     bordercolor="#000000"
     borderopacity="0.25"
     inkscape:showpageshadow="2"
     inkscape:pageopacity="0.0"
     inkscape:pagecheckerboard="0"
     inkscape:deskcolor="#d1d1d1"
     inkscape:document-units="mm"
     inkscape:zoom="4.1172106"
     inkscape:cx="153.62343"
     inkscape:cy="43.597479"
     inkscape:window-width="1920"
     inkscape:window-height="1094"
     inkscape:window-x="-11"
     inkscape:window-y="-11"
     inkscape:window-maximized="1"
     inkscape:current-layer="layer1" /><defs
     id="defs1" /><g
     inkscape:label="Calque 1"
     inkscape:groupmode="layer"
     id="layer1"><g
       id="g1"
       transform="translate(3.1324911,0.08399643)"><path
         style="fill:#ffffff;stroke-width:0.0525517"
         d="m 30.297319,8.6030447 c -0.0054,0.019112 -0.0189,0.035101 -0.0361,0.043025 -0.01285,0.00591 -0.03416,0.00697 -0.0473,0.00231 -0.01548,-0.00544 -0.03859,-0.023009 -0.06494,-0.049316 -0.06014,-0.060028 -0.09783,-0.1355787 -0.111134,-0.2227632 -0.0039,-0.025603 -0.0039,-0.080522 0,-0.1061255 0.01112,-0.072893 0.03914,-0.1369828 0.08397,-0.1921518 0.02349,-0.028894 0.06727,-0.068461 0.08594,-0.077651 0.0081,-0.00397 0.01053,-0.00434 0.02654,-0.00434 0.01561,2.4e-5 0.01874,5.189e-4 0.02653,0.00415 0.01378,0.00644 0.0258,0.018479 0.03226,0.032296 0.0051,0.010797 0.0054,0.013004 0.0054,0.027031 -4e-6,0.01333 -5.65e-4,0.0165 -0.0044,0.024857 -0.0066,0.014117 -0.01063,0.018664 -0.03156,0.035412 -0.06782,0.054298 -0.104123,0.136353 -0.09798,0.2214363 0.0017,0.024386 0.0052,0.041865 0.01288,0.06481 0.0152,0.045577 0.04585,0.089961 0.08134,0.1177681 0.02303,0.018046 0.02741,0.022616 0.03353,0.034997 0.0048,0.00961 0.0059,0.013796 0.0064,0.024296 3.93e-4,0.00757 -1.68e-4,0.015588 -0.0014,0.019914 z m -0.192957,0.1641859 c -0.0053,0.012646 -0.0099,0.019518 -0.01719,0.026144 -0.01947,0.017584 -0.04785,0.021536 -0.07153,0.00995 -0.02407,-0.011777 -0.08141,-0.074337 -0.117122,-0.1277659 -0.06822,-0.1020853 -0.103889,-0.2149821 -0.106748,-0.3378569 -0.0017,-0.075705 0.0081,-0.1412824 0.03164,-0.212354 0.03291,-0.098973 0.08515,-0.1823242 0.160234,-0.2556337 0.02436,-0.023785 0.03278,-0.029206 0.0501,-0.032257 0.01947,-0.00345 0.04341,0.00454 0.05656,0.018795 0.0037,0.00406 0.0091,0.012183 0.01187,0.018089 0.0048,0.00998 0.0051,0.011943 0.0051,0.027626 -8.4e-5,0.024876 -0.0024,0.028983 -0.03681,0.064268 -0.03795,0.038949 -0.06046,0.067673 -0.08133,0.1037649 -0.08445,0.1460485 -0.09132,0.3200215 -0.01861,0.4711329 0.02688,0.055863 0.05672,0.097295 0.10341,0.1435789 0.02862,0.02837 0.03298,0.035983 0.03379,0.059025 4.46e-4,0.012338 -4.4e-5,0.0158 -0.0033,0.023489 z M 29.918249,8.916045 c -0.0028,0.014376 -0.01462,0.031466 -0.02715,0.039416 -0.0094,0.00593 -0.0256,0.01098 -0.03533,0.01098 -0.01,0 -0.02459,-0.00391 -0.03308,-0.0089 -0.009,-0.00522 -0.0303,-0.026295 -0.05555,-0.054706 C 29.63901,8.7585897 29.56352,8.578088 29.549968,8.3835652 c -0.0024,-0.03453 -9.92e-4,-0.1201255 0.0024,-0.1511591 0.0169,-0.1522928 0.06657,-0.2857239 0.152091,-0.4086261 0.03893,-0.055955 0.102202,-0.1268618 0.121724,-0.1364205 0.0328,-0.01606 0.07097,-0.00302 0.08704,0.029748 0.0093,0.018942 0.0085,0.042021 -0.0021,0.060374 -0.002,0.00359 -0.01395,0.017235 -0.02636,0.03028 -0.05548,0.058332 -0.09787,0.1186803 -0.131113,0.1866658 -0.04031,0.082439 -0.06212,0.1581071 -0.07277,0.2524501 -0.0035,0.03047 -0.0039,0.113627 -7.55e-4,0.1455208 0.0067,0.069528 0.02384,0.1417871 0.04802,0.2034075 0.01158,0.029517 0.03875,0.084575 0.05497,0.1114016 0.03026,0.050042 0.07287,0.104296 0.112753,0.1435704 0.02038,0.020064 0.02738,0.040408 0.02246,0.065264 z"
         id="path1"
         sodipodi:nodetypes="csssccsssccscssssscccssssssssscsssscccssscsscssssssscssss" /><path
         style="fill:#ffffff;stroke-width:0.0525517"
         d="m 31.894543,8.0439056 c 0.0054,-0.019112 0.0189,-0.035101 0.0361,-0.043025 0.01285,-0.00591 0.03416,-0.00697 0.0473,-0.00231 0.01548,0.00544 0.03859,0.023007 0.06494,0.049316 0.06015,0.060028 0.09784,0.1355785 0.111135,0.2227631 0.0039,0.025603 0.0039,0.080522 0,0.1061256 -0.01112,0.072893 -0.03914,0.1369832 -0.08397,0.1921518 -0.02349,0.02889 -0.06728,0.068462 -0.08594,0.077651 -0.0081,0.00397 -0.01052,0.00434 -0.02654,0.00434 -0.0156,-2.41e-5 -0.01873,-5.188e-4 -0.02654,-0.00415 -0.01378,-0.00644 -0.0258,-0.01848 -0.03227,-0.032295 -0.0051,-0.010797 -0.0054,-0.013004 -0.0054,-0.027031 4e-6,-0.013329 5.66e-4,-0.016499 0.0044,-0.024857 0.0066,-0.014117 0.01063,-0.018664 0.03156,-0.035412 0.06782,-0.054298 0.104125,-0.1363531 0.09798,-0.2214364 -0.0017,-0.024385 -0.0052,-0.041865 -0.01289,-0.06481 -0.0152,-0.045577 -0.04585,-0.089961 -0.08134,-0.117768 -0.02304,-0.018046 -0.02741,-0.022615 -0.03354,-0.034997 -0.0048,-0.00961 -0.0059,-0.013796 -0.0064,-0.024295 -3.9e-4,-0.00757 1.71e-4,-0.015589 0.0014,-0.019914 z m 0.192955,-0.1641857 c 0.0053,-0.012645 0.0099,-0.019518 0.01719,-0.026145 0.01947,-0.017584 0.04785,-0.021536 0.07153,-0.00995 0.02407,0.011777 0.08141,0.074337 0.117123,0.1277659 0.06822,0.1020853 0.103888,0.2149822 0.106747,0.3378574 0.0017,0.075704 -0.0081,0.1412819 -0.03164,0.2123535 -0.03291,0.098973 -0.08515,0.1823242 -0.160235,0.2556339 -0.02436,0.023785 -0.03277,0.029205 -0.05009,0.032257 -0.01946,0.00345 -0.04342,-0.00454 -0.05655,-0.018795 -0.0037,-0.00406 -0.0091,-0.012183 -0.01187,-0.018089 -0.0048,-0.00998 -0.0051,-0.011943 -0.0051,-0.027624 8.4e-5,-0.024875 0.0024,-0.028983 0.03681,-0.064267 0.03795,-0.038954 0.06046,-0.067674 0.08133,-0.1037649 0.08445,-0.1460491 0.09132,-0.320022 0.01861,-0.4711333 -0.02688,-0.055863 -0.05672,-0.097295 -0.10341,-0.143579 -0.02862,-0.02837 -0.03298,-0.035983 -0.03379,-0.059024 -4.46e-4,-0.012338 4.4e-5,-0.0158 0.0033,-0.023489 z m 0.186116,-0.1488144 c 0.0028,-0.014372 0.01462,-0.031465 0.02715,-0.039416 0.0094,-0.00593 0.0256,-0.01098 0.03532,-0.01098 0.01,0 0.02459,0.00391 0.03308,0.0089 0.009,0.00522 0.03031,0.026295 0.05555,0.054706 0.12813,0.1442454 0.203619,0.3247471 0.217172,0.5192699 0.0024,0.03453 9.93e-4,0.1201254 -0.0024,0.1511589 -0.01691,0.1522929 -0.06657,0.285724 -0.152088,0.4086262 -0.03893,0.055954 -0.102204,0.1268617 -0.121725,0.1364204 -0.0328,0.01606 -0.07097,0.00302 -0.08704,-0.029748 -0.0093,-0.018942 -0.0085,-0.042021 0.0021,-0.060375 0.002,-0.00359 0.01395,-0.017235 0.02636,-0.03028 0.05549,-0.058332 0.09787,-0.1186803 0.131113,-0.1866658 0.04031,-0.082439 0.06212,-0.1581071 0.07276,-0.25245 0.0035,-0.03047 0.0039,-0.1136269 7.55e-4,-0.1455208 -0.0067,-0.069528 -0.02383,-0.141787 -0.04801,-0.2034069 -0.01158,-0.029517 -0.03875,-0.084576 -0.05497,-0.1114021 -0.03026,-0.050041 -0.07287,-0.1042961 -0.112754,-0.1435705 -0.02038,-0.020065 -0.02737,-0.040408 -0.02247,-0.065264 z"
         id="path1-1"
         sodipodi:nodetypes="csssccsssccscssssscccssssssssscsssscccssscsscssssssscssss" /><path
         fill="#000000"
         d="m 27.839427,0.35072092 c -0.08525,0.002655 -0.177059,0.0341423 -0.281187,0.11629725 -0.255089,-0.0983685 -0.502404,-0.13253983 -0.723577,0.0677241 -0.341531,-0.0442994 -0.452517,0.0471139 -0.536605,0.15383602 -0.07497,-0.001562 -0.561032,-0.0770703 -0.783922,0.25541853 C 24.954,0.87771562 24.776969,1.2734695 24.977554,1.6425124 c -0.114399,0.177102 -0.232936,0.3520604 0.03459,0.689682 -0.09463,0.1880432 -0.03598,0.3920321 0.18696,0.6389009 -0.05883,0.2643455 0.05681,0.4508461 0.264252,0.5961971 -0.0388,0.3617412 0.331733,0.5720551 0.442367,0.6470033 0.04248,0.2107775 0.131028,0.4096738 0.554247,0.519647 0.0698,0.3141147 0.32415,0.36836 0.570452,0.4342871 -0.81407,0.4731988 -1.512186,1.0958 -1.507451,2.6234376 L 25.40373,8.0043835 c -0.933444,0.5676502 -1.773258,2.3921375 -0.460009,3.8750925 0.08578,0.464201 0.229641,0.797631 0.357736,1.16665 0.191584,1.486984 1.441925,2.183262 1.771704,2.265605 0.483257,0.368102 0.997933,0.717384 1.694423,0.962038 0.656565,0.677152 1.367872,0.935232 2.083063,0.934809 0.01048,-7e-6 0.02116,8.9e-5 0.03165,0 0.715191,4.45e-4 1.426473,-0.257633 2.083062,-0.934809 0.696467,-0.244654 1.211168,-0.593936 1.694423,-0.962038 0.329779,-0.08234 1.580116,-0.778621 1.771703,-2.265605 0.128085,-0.369019 0.271954,-0.702449 0.357738,-1.16665 1.313229,-1.483073 0.473436,-3.3076785 -0.460029,-3.8753282 l -0.11941,-0.2126921 c 0.0048,-1.5275196 -0.693381,-2.1501209 -1.507452,-2.6234372 0.246303,-0.065913 0.500662,-0.1201579 0.570453,-0.4342874 0.423216,-0.1099926 0.51178,-0.3088866 0.554247,-0.5196462 0.110651,-0.074934 0.481159,-0.2852621 0.442367,-0.647004 0.207433,-0.1453652 0.323089,-0.3318743 0.26425,-0.5961972 C 36.756586,2.7240148 36.815261,2.5200377 36.72061,2.3319836 36.988183,1.9945022 36.86947,1.8195439 36.75524,1.6424418 36.955681,1.273399 36.778795,0.87764545 36.218444,0.9439263 35.995623,0.61143855 35.509705,0.68695346 35.434567,0.68850776 35.350477,0.58178452 35.239542,0.4903723 34.89801,0.53467173 34.676839,0.33441205 34.429521,0.36858417 34.174433,0.46695578 33.87153,0.22793116 33.671084,0.41953851 33.442142,0.49198585 33.075407,0.37215038 32.991555,0.53628529 32.811367,0.60313136 32.41142,0.51861733 32.289883,0.70262397 32.098154,0.89682527 l -0.223027,-0.004443 C 31.271884,1.2478818 30.972208,1.9717648 30.865979,2.3438929 30.759702,1.9716938 30.46071,1.2478108 29.857589,0.89238204 l -0.223028,0.004443 C 29.442596,0.70262314 29.321057,0.51861931 28.921113,0.60313054 28.740925,0.53628771 28.657309,0.37214955 28.290338,0.49198502 28.140071,0.44444318 28.001872,0.34561043 27.839138,0.35066087 Z"
         id="path1-8"
         style="stroke-width:0.0235538" /><path
         fill="#75a928"
         d="m 26.638412,1.914697 c 1.600443,0.8251177 2.53087,1.4925893 3.040578,2.0610639 -0.261024,1.0462185 -1.622772,1.0939626 -2.120703,1.0646142 0.101952,-0.047457 0.187017,-0.104292 0.21718,-0.1916275 -0.124942,-0.088795 -0.567956,-0.00936 -0.877243,-0.1831137 0.118808,-0.024616 0.174381,-0.048594 0.229954,-0.1362689 -0.292209,-0.093195 -0.60696,-0.173507 -0.79207,-0.3278934 0.0999,0.00124 0.19317,0.022348 0.32363,-0.068137 -0.261731,-0.1410459 -0.54101,-0.2528282 -0.757988,-0.4684178 0.135321,-0.00328 0.281209,-0.00133 0.32363,-0.051097 -0.239543,-0.1484071 -0.441661,-0.3134564 -0.608963,-0.4939735 0.189373,0.022863 0.269339,0.0032 0.315128,-0.029808 -0.181078,-0.1854694 -0.410263,-0.3420743 -0.519529,-0.5706184 0.140607,0.048462 0.269244,0.067014 0.361977,-0.00421 -0.06153,-0.1388158 -0.325163,-0.2206914 -0.476945,-0.5450856 0.148024,0.01435 0.305024,0.032296 0.336422,0 -0.0687,-0.2799153 -0.186595,-0.4372787 -0.302221,-0.6003191 0.3168,-0.00475 0.796782,0.00124 0.775042,-0.025552 L 25.910405,1.1441089 c 0.309451,-0.083315 0.626087,0.013384 0.855949,0.085169 0.103212,-0.081443 -0.0019,-0.1844279 -0.127751,-0.28957198 0.26298,0.0351095 0.500615,0.0955679 0.715404,0.17885368 0.114763,-0.1036201 -0.07452,-0.20724416 -0.16608,-0.31086423 0.406283,0.0770856 0.578415,0.18538593 0.749487,0.29383503 0.124115,-0.11896621 0.0071,-0.22007171 -0.07665,-0.323631 0.306343,0.11345908 0.464131,0.2599413 0.630257,0.4045386 0.05631,-0.07601 0.143087,-0.1317229 0.03833,-0.3151281 0.217502,0.1253715 0.381314,0.2731078 0.502499,0.4386218 0.134574,-0.085687 0.08017,-0.2028703 0.08091,-0.31086504 0.226038,0.18387444 0.36949,0.37954834 0.545086,0.57061754 0.03536,-0.025755 0.06634,-0.1130989 0.09368,-0.2512496 0.539268,0.5231805 1.301261,1.8409284 0.195886,2.3634019 -0.940738,-0.7758667 -2.06426,-1.3398178 -3.30932,-1.7628705 z"
         id="path2"
         style="stroke-width:0.0235538" /><path
         fill="#75a928"
         d="m 35.130312,1.914697 c -1.600255,0.8251886 -2.530634,1.4924716 -3.040341,2.0610639 0.261024,1.0462185 1.62277,1.0939626 2.120702,1.0646142 -0.101951,-0.047457 -0.187017,-0.104292 -0.21718,-0.1916275 0.124943,-0.088795 0.567957,-0.00936 0.877243,-0.1831137 -0.118809,-0.024616 -0.174381,-0.048594 -0.229954,-0.1362689 0.292209,-0.093195 0.60696,-0.173507 0.79207,-0.3278934 -0.0999,0.00124 -0.193169,0.022348 -0.32363,-0.068137 0.261732,-0.1410459 0.54101,-0.2528282 0.757989,-0.4684178 -0.135322,-0.00328 -0.281211,-0.00133 -0.32363,-0.051097 0.239543,-0.1484068 0.441659,-0.3134561 0.608962,-0.4939732 -0.189374,0.022863 -0.269339,0.0032 -0.315128,-0.029808 0.181078,-0.1854693 0.410263,-0.3420742 0.519531,-0.5706183 -0.140609,0.048462 -0.269246,0.067014 -0.361979,-0.00421 0.06153,-0.1388157 0.325163,-0.2206915 0.476944,-0.5450856 -0.148023,0.014351 -0.305023,0.032296 -0.33642,0 0.06883,-0.2800323 0.186723,-0.4373971 0.302337,-0.6004368 -0.3168,-0.00475 -0.796781,0.00124 -0.775042,-0.025552 l 0.195887,-0.2001443 c -0.309453,-0.083316 -0.626087,0.013384 -0.855951,0.085168 -0.10321,-0.081442 0.0019,-0.184427 0.127752,-0.28957268 -0.262978,0.0351095 -0.500614,0.0955686 -0.715403,0.17885528 -0.114765,-0.1036209 0.07452,-0.20724423 0.166078,-0.3108651 -0.406281,0.0770856 -0.578412,0.18538593 -0.749486,0.2938351 -0.124115,-0.11896629 -0.0071,-0.2200717 0.07665,-0.323631 -0.306344,0.1134597 -0.464131,0.2599419 -0.630258,0.40454 -0.05631,-0.07601 -0.143087,-0.1317237 -0.03833,-0.31512897 C 33.022226,0.99256321 32.858413,1.1403004 32.737227,1.3058142 32.602655,1.2201275 32.657056,1.102944 32.656316,0.99494929 32.430278,1.1788229 32.286825,1.3744975 32.111231,1.5655668 32.075871,1.5398118 32.044891,1.4524679 32.017541,1.3143171 31.478274,1.8374969 30.71628,3.1552454 31.821655,3.677719 c 0.94025,-0.7760321 2.0637,-1.3399365 3.308856,-1.7629884 z"
         id="path3"
         style="stroke-width:0.0235538" /><path
         fill="#bc1142"
         d="m 32.822525,12.568278 a 1.9170531,1.7677558 0 1 1 -3.834053,0 1.9170531,1.7677558 0 1 1 3.834053,0 z"
         id="path4"
         style="stroke-width:0.0266059" /><path
         fill="#bc1142"
         d="M 29.796247,7.5184302 A 1.7194102,2.0286932 34.034225 1 1 27.55938,10.90342 1.7194102,2.0286932 34.034225 1 1 29.796247,7.5184302 Z"
         id="path5"
         style="stroke-width:0.0447707" /><path
         fill="#bc1142"
         d="M 31.940213,7.4242146 A 2.028693,1.7194102 55.965775 1 0 34.17708,10.809204 2.028693,1.7194102 55.965775 1 0 31.940213,7.4242146 Z"
         id="path6"
         style="stroke-width:0.0447707" /><path
         fill="#bc1142"
         d="m 25.826272,8.3692762 c 0.8576,-0.2298866 0.289526,3.5479288 -0.40826,3.2379588 -0.767551,-0.617348 -1.014772,-2.425348 0.40826,-3.2379588 z"
         id="path7"
         style="stroke-width:0.0235538" /><path
         fill="#bc1142"
         d="M 35.737062,8.3221685 C 34.879368,8.092355 35.447536,11.870334 36.145321,11.560363 36.912874,10.942944 37.160095,9.1347791 35.737062,8.3221685 Z"
         id="path8"
         style="stroke-width:0.0235538" /><path
         fill="#bc1142"
         d="m 32.823204,5.5088865 c 1.480012,-0.2499073 2.711529,0.6294083 2.661831,2.2342788 -0.04868,0.6152524 -3.207104,-2.1426776 -2.661831,-2.2342788 z"
         id="path9"
         style="stroke-width:0.0235538" /><path
         fill="#bc1142"
         d="m 28.734005,5.4617783 c -1.480129,-0.2499069 -2.711528,0.6295969 -2.66183,2.2343264 0.04869,0.6152287 3.207104,-2.1427012 2.66183,-2.2343264 z"
         id="path10"
         style="stroke-width:0.0235538" /><path
         fill="#bc1142"
         d="m 30.859984,5.0875064 c -0.883344,-0.022972 -1.731096,0.6556004 -1.733146,1.0491867 -0.0024,0.4782389 0.698397,0.9679015 1.739153,0.9803147 1.062823,0.00762 1.741012,-0.3919378 1.744427,-0.8854869 0.0039,-0.5591701 -0.96663,-1.1526592 -1.750457,-1.1440379 z"
         id="path11"
         style="stroke-width:0.0235538" /><path
         fill="#bc1142"
         d="m 30.913922,14.894422 c 0.770143,-0.03362 1.803549,0.24807 1.805574,0.62173 0.01278,0.362848 -0.937211,1.182666 -1.856662,1.166815 -0.952215,0.04107 -1.885939,-0.780013 -1.873716,-1.064614 -0.01425,-0.417282 1.159467,-0.74308 1.924804,-0.723931 z"
         id="path12"
         style="stroke-width:0.0235538" /><path
         fill="#bc1142"
         d="m 28.069313,12.679882 c 0.548313,0.660593 0.798267,1.821166 0.340685,2.163288 -0.432898,0.261165 -1.48418,0.153609 -2.231405,-0.919829 -0.503937,-0.90075 -0.438999,-1.817352 -0.08517,-2.08662 0.529117,-0.322312 1.34665,0.113036 1.975918,0.843161 z"
         id="path13"
         style="stroke-width:0.0235538" /><path
         fill="#bc1142"
         d="m 33.64877,12.470487 c -0.593253,0.694887 -0.923598,1.962277 -0.490817,2.370468 0.413795,0.31713 1.524622,0.272802 2.345171,-0.865749 0.595819,-0.764679 0.396177,-2.041702 0.05584,-2.380831 -0.505561,-0.391042 -1.231329,0.109406 -1.9102,0.875923 z"
         id="path14"
         style="stroke-width:0.0235538" /></g></g></svg>
