<?xml version="1.0" encoding="UTF-8" standalone="no"?>
<!-- Created with Inkscape (http://www.inkscape.org/) -->

<svg
   width="257"
   height="67"
   viewBox="0 0 67.997916 17.727083"
   version="1.1"
   id="svg1"
   xml:space="preserve"
   xmlns="http://www.w3.org/2000/svg"
   xmlns:svg="http://www.w3.org/2000/svg"><defs
     id="defs1" /><g
     id="layer1"><path
       style="fill:#bc1142;fill-opacity:1;stroke:#000000;stroke-width:0.69;stroke-dasharray:none;stroke-opacity:0"
       d="m 9.1530766,12.00397 c -0.06153,0.214698 -0.2122287,0.394295 -0.4055337,0.483289 -0.144397,0.06648 -0.3837047,0.07828 -0.5314037,0.0262 -0.173759,-0.06126 -0.4334257,-0.258444 -0.7295177,-0.553973 -0.6755854,-0.6743 -1.0989764,-1.522968 -1.2483791,-2.5023173 -0.04388,-0.28761 -0.04388,-0.904507 0,-1.192117 0.1249127,-0.818819 0.4395327,-1.538742 0.9432854,-2.158456 0.2638137,-0.324543 0.7557654,-0.769037 0.9653934,-0.872262 0.08993,-0.04428 0.118177,-0.04889 0.2980287,-0.04861 0.175243,2.7e-4 0.210408,0.0058 0.298029,0.04676 0.154805,0.07239 0.2898897,0.207588 0.3624497,0.362766 0.0567,0.121264 0.06174,0.146052 0.06169,0.303636 -4.3e-5,0.14972 -0.0065,0.18531 -0.05025,0.279205 -0.07399,0.158593 -0.119492,0.209656 -0.3544837,0.397799 -0.7618077,0.609929 -1.1696364,1.531666 -1.1005704,2.487412 0.01979,0.273921 0.05884,0.470274 0.144763,0.728028 0.1706647,0.5119463 0.5150527,1.0105343 0.9137604,1.3228973 0.2587457,0.202712 0.3079277,0.254044 0.3766747,0.393143 0.05338,0.108007 0.06576,0.154997 0.07192,0.272898 0.0044,0.08514 -0.0019,0.175114 -0.01586,0.223705 z m -2.1674958,1.844312 c -0.0599,0.14203 -0.110655,0.219232 -0.1930837,0.293702 -0.218654,0.197541 -0.5375547,0.241918 -0.8034877,0.111809 C 5.7186437,14.121515 5.074428,13.418755 4.6733693,12.81859 3.9070666,11.671856 3.5063799,10.403677 3.4742629,9.0234107 3.4544729,8.1730087 3.5642229,7.4363737 3.8296606,6.6380237 4.1993053,5.5262427 4.786178,4.5899613 5.6295877,3.7664673 5.9032474,3.4992691 5.9977964,3.4383869 6.1922974,3.4041262 c 0.2186317,-0.038512 0.4875867,0.050873 0.6353124,0.2111353 0.04185,0.045401 0.101817,0.1368458 0.133254,0.2032032 0.05309,0.1120673 0.05711,0.134141 0.0565,0.3103048 -9.45e-4,0.2794277 -0.0274,0.3255638 -0.4135297,0.721919 -0.4262657,0.4375572 -0.6791227,0.7601712 -0.9135654,1.1656002 -0.9486807,1.640577 -1.0258714,3.594831 -0.209039,5.2922783 0.3019647,0.62751 0.6371677,1.092925 1.1616034,1.612835 0.3214477,0.318675 0.3704237,0.404204 0.3796647,0.663027 0.005,0.138586 -4.96e-4,0.1775 -0.03691,0.263853 z M 4.894945,15.519926 c -0.03195,0.161468 -0.164168,0.353424 -0.3049927,0.442779 -0.104937,0.06658 -0.287572,0.123364 -0.396799,0.123364 -0.1125337,0 -0.2761237,-0.04401 -0.3716237,-0.09998 C 3.7213276,15.927369 3.4810369,15.690722 3.1975479,15.371574 1.7582638,13.75125 0.91027643,11.723661 0.75803943,9.5385697 c -0.02703,-0.387906 -0.01178,-1.349378 0.02692,-1.697982 C 0.97489343,6.1298687 1.5327591,4.6310253 2.4933935,3.2504561 2.9307492,2.6219139 3.6414549,1.8254062 3.8607386,1.7180331 4.2291363,1.5376461 4.6580353,1.6842261 4.83847,2.0521854 4.942815,2.264973 4.93347,2.5242167 4.81403,2.7303785 4.79055,2.7709095 4.6572883,2.9239767 4.5178993,3.070525 3.8946736,3.725763 3.4185189,4.4036687 3.0451032,5.1673547 c -0.452805,0.926049 -0.6977947,1.776032 -0.8173567,2.835794 -0.03861,0.342267 -0.04354,1.276381 -0.0086,1.634646 0.07614,0.7810183 0.267754,1.5927073 0.5393967,2.2848923 0.130111,0.331541 0.4353227,0.950049 0.6175157,1.251387 0.3398657,0.562123 0.8184924,1.171565 1.2665694,1.612739 0.2289017,0.225376 0.3075607,0.453915 0.2523237,0.733111 z"
       id="path1" /><path
       style="fill:#bc1142;fill-opacity:1;stroke:#000000;stroke-width:0.69;stroke-dasharray:none;stroke-opacity:0"
       d="m 25.094911,5.7231132 c 0.06153,-0.214698 0.212229,-0.394295 0.405534,-0.483289 0.144397,-0.06648 0.383705,-0.07828 0.531404,-0.0262 0.173759,0.06126 0.433426,0.258444 0.729518,0.553973 0.675586,0.674299 1.098977,1.522967 1.24838,2.502317 0.04388,0.28761 0.04388,0.904507 0,1.192117 -0.124913,0.8188188 -0.439533,1.5387418 -0.943286,2.1584558 -0.263814,0.324543 -0.755766,0.769037 -0.965394,0.872262 -0.08993,0.04428 -0.118177,0.04889 -0.298029,0.04861 -0.175243,-2.7e-4 -0.210408,-0.0058 -0.298029,-0.04676 -0.154805,-0.07239 -0.28989,-0.207588 -0.36245,-0.362766 -0.0567,-0.121264 -0.06174,-0.146052 -0.06169,-0.303636 4.3e-5,-0.14972 0.0065,-0.18531 0.05025,-0.279205 0.07399,-0.158593 0.119492,-0.209656 0.354484,-0.397799 0.761808,-0.609929 1.169637,-1.5316658 1.100571,-2.4874118 -0.01979,-0.273921 -0.05884,-0.470274 -0.144763,-0.728028 -0.170665,-0.511947 -0.515053,-1.010535 -0.913761,-1.322898 -0.258746,-0.202712 -0.307928,-0.254044 -0.376675,-0.393143 -0.05338,-0.108007 -0.06576,-0.154996 -0.07192,-0.272897 -0.0044,-0.08514 0.0019,-0.175114 0.01586,-0.223705 z m 2.167497,-1.844312 c 0.0599,-0.14203 0.110655,-0.219232 0.193084,-0.293702 0.218654,-0.197541 0.537555,-0.241918 0.803488,-0.111809 0.270366,0.132278 0.914582,0.835038 1.315641,1.435203 0.766303,1.146734 1.16699,2.414912 1.199107,3.795179 0.01979,0.850402 -0.08996,1.5870368 -0.355398,2.3853868 -0.369645,1.111781 -0.956518,2.048062 -1.799928,2.871556 -0.27366,0.267199 -0.368209,0.328081 -0.56271,0.362341 -0.218632,0.03851 -0.487587,-0.05087 -0.635313,-0.211135 -0.04185,-0.0454 -0.101817,-0.136846 -0.133254,-0.203203 -0.05309,-0.112067 -0.05711,-0.134141 -0.0565,-0.310305 9.45e-4,-0.279428 0.0274,-0.325564 0.41353,-0.721919 0.426266,-0.437557 0.679123,-0.760171 0.913566,-1.1656 0.948681,-1.640577 1.025872,-3.5948308 0.209039,-5.2922788 -0.301965,-0.627509 -0.637168,-1.092924 -1.161604,-1.612834 -0.321448,-0.318675 -0.370424,-0.404204 -0.379665,-0.663027 -0.005,-0.138586 4.96e-4,-0.1775 0.03691,-0.263853 z m 2.090637,-1.671644 c 0.03195,-0.161468 0.164168,-0.353424 0.304993,-0.442779 0.104937,-0.06658 0.287572,-0.123364 0.396799,-0.123364 0.112534,0 0.276124,0.04401 0.371624,0.09998 0.100202,0.05872 0.340493,0.295367 0.623982,0.614515 1.439285,1.620324 2.287273,3.647913 2.43951,5.833004 0.02703,0.387906 0.01178,1.349378 -0.02692,1.697982 -0.189934,1.7107188 -0.7478,3.2095618 -1.708435,4.5901318 -0.437356,0.628542 -1.148062,1.425049 -1.367346,1.532423 -0.368398,0.180387 -0.797297,0.03381 -0.977732,-0.334153 -0.104345,-0.212787 -0.095,-0.472031 0.02444,-0.678193 0.02348,-0.04053 0.156742,-0.193598 0.296131,-0.340146 0.623226,-0.655238 1.099381,-1.333144 1.472797,-2.09683 0.452805,-0.926049 0.697795,-1.776032 0.817357,-2.8357938 0.03861,-0.342267 0.04354,-1.276381 0.0086,-1.634646 -0.07614,-0.781019 -0.267754,-1.592708 -0.539397,-2.284892 -0.130111,-0.331541 -0.435323,-0.950049 -0.617516,-1.251387 -0.339866,-0.562123 -0.818493,-1.171565 -1.26657,-1.612739 -0.228902,-0.225376 -0.307561,-0.453915 -0.252324,-0.733111 z"
       id="path1-1" /><g
       id="g14"
       transform="matrix(0.02294388,0,0,0.02294388,10.541058,0.61502354)"><path
         fill="#000000"
         d="m 158.38,1.6562 c -3.6193,0.11232 -7.5172,1.4493 -11.938,4.9375 -10.83,-4.1763 -21.33,-5.6271 -30.72,2.8751 C 101.222,7.588 96.51,11.469 92.94,16 89.757,15.934 69.121,12.728 59.658,26.844 35.877,24.03 28.361,40.832 36.877,56.5 c -4.8569,7.519 -9.8895,14.947 1.4688,29.281 -4.018,7.9835 -1.5274,16.644 7.9375,27.125 -2.4979,11.223 2.4121,19.141 11.219,25.312 -1.6471,15.358 14.084,24.287 18.781,27.469 1.8037,8.9487 5.5629,17.393 23.531,22.062 2.9632,13.336 13.762,15.639 24.219,18.438 -34.562,20.09 -64.201,46.523 -64,111.38 l -5.0625,9.0312 c -39.63,24.1 -75.285,101.56 -19.53,164.52 3.6419,19.708 9.7496,33.864 15.188,49.531 8.1338,63.131 61.218,92.692 75.219,96.188 20.517,15.628 42.368,30.457 71.938,40.844 27.875,28.749 58.074,39.706 88.438,39.688 0.44515,-2.8e-4 0.89853,0.005 1.3438,0 30.364,0.0189 60.562,-10.938 88.438,-39.688 29.569,-10.387 51.421,-25.216 71.938,-40.844 14.001,-3.4959 67.085,-33.057 75.219,-96.188 5.4379,-15.667 11.546,-29.823 15.188,-49.531 55.754,-62.965 20.1,-140.43 -19.531,-164.53 l -5.07,-9.03 c 0.20067,-64.852 -29.438,-91.285 -64,-111.38 10.457,-2.7984 21.256,-5.1014 24.219,-18.438 17.968,-4.6698 21.728,-13.114 23.531,-22.062 4.6978,-3.1813 20.428,-12.111 18.781,-27.469 8.8067,-6.1716 13.717,-14.09 11.219,-25.312 9.4649,-10.481 11.956,-19.141 7.9375,-27.125 11.36,-14.328 6.32,-21.756 1.47,-29.275 8.51,-15.668 1,-32.47 -22.79,-29.656 -9.46,-14.116 -30.09,-10.91 -33.28,-10.844 -3.57,-4.531 -8.28,-8.412 -22.78,-6.5312 -9.39,-8.5022 -19.89,-7.0514 -30.72,-2.875 -12.86,-10.148 -21.37,-2.0133 -31.09,1.0624 -15.57,-5.0877 -19.13,1.881 -26.78,4.7188 -16.98,-3.5881 -22.14,4.224 -30.28,12.469 l -9.4688,-0.1875 c -25.611,15.093 -38.334,45.826 -42.844,61.625 -4.5121,-15.802 -17.206,-46.535 -42.812,-61.625 l -9.4688,0.1875 c -8.15,-8.245 -13.31,-16.057 -30.29,-12.469 -7.65,-2.8378 -11.2,-9.8065 -26.78,-4.7188 -6.3797,-2.0185 -12.247,-6.2144 -19.156,-6 z"
         id="path1-8" /><path
         fill="#75a928"
         d="m 107.39,68.056 c 67.948,35.031 107.45,63.369 129.09,87.504 -11.082,44.418 -68.896,46.445 -90.036,45.199 4.3284,-2.0147 7.9399,-4.4278 9.2205,-8.1357 -5.3045,-3.7698 -24.113,-0.39719 -37.244,-7.7742 5.0441,-1.045 7.4035,-2.063 9.7629,-5.7854 -12.406,-3.9567 -25.769,-7.3664 -33.628,-13.921 4.2413,0.0524 8.2012,0.9488 13.74,-2.8927 -11.112,-5.9882 -22.969,-10.734 -32.181,-19.887 5.7452,-0.14063 11.939,-0.0568 13.74,-2.1695 -10.17,-6.3007 -18.751,-13.308 -25.854,-20.972 8.04,0.97052 11.435,0.13478 13.379,-1.2656 -7.6878,-7.8742 -17.418,-14.523 -22.057,-24.226 5.9696,2.0575 11.431,2.8451 15.368,-0.1808 -2.6124,-5.8935 -13.805,-9.3696 -20.249,-23.142 6.2844,0.60938 12.95,1.3711 14.283,0 -2.917,-11.884 -7.922,-18.565 -12.831,-25.487 13.45,-0.2 33.828,0.052 32.905,-1.085 l -8.3165,-8.4973 c 13.138,-3.5372 26.581,0.56816 36.34,3.6159 4.3819,-3.4577 -0.0776,-7.83 -5.4238,-12.294 11.165,1.4906 21.254,4.0574 30.373,7.5934 4.8724,-4.3993 -3.1639,-8.7987 -7.051,-13.198 17.249,3.2726 24.557,7.8707 31.82,12.475 5.2694,-5.0508 0.30166,-9.3433 -3.2543,-13.74 13.006,4.817 19.705,11.036 26.758,17.175 2.3912,-3.2271 6.0749,-5.5924 1.6272,-13.379 9.2342,5.3227 16.189,11.595 21.334,18.622 5.7134,-3.6379 3.4039,-8.613 3.4351,-13.198 9.5966,7.8065 15.687,16.114 23.142,24.226 1.5017,-1.0934 2.8166,-4.8017 3.9775,-10.667 22.895,22.212 55.246,78.158 8.3165,100.34 -39.94,-32.94 -87.64,-56.883 -140.5,-74.844 z"
         id="path2" /><path
         fill="#75a928"
         d="m 467.92,68.056 c -67.94,35.034 -107.44,63.364 -129.08,87.504 11.082,44.418 68.896,46.445 90.036,45.199 -4.3284,-2.0147 -7.9399,-4.4278 -9.2205,-8.1357 5.3045,-3.7698 24.113,-0.39719 37.244,-7.7742 -5.0441,-1.045 -7.4035,-2.063 -9.7629,-5.7854 12.406,-3.9567 25.769,-7.3664 33.628,-13.921 -4.2413,0.0524 -8.2012,0.9488 -13.74,-2.8927 11.112,-5.9882 22.969,-10.734 32.181,-19.887 -5.7452,-0.14063 -11.939,-0.0568 -13.74,-2.1695 10.17,-6.3007 18.751,-13.308 25.854,-20.972 -8.04,0.97052 -11.435,0.13478 -13.379,-1.2656 7.6878,-7.8742 17.418,-14.523 22.057,-24.226 -5.9696,2.0575 -11.431,2.8451 -15.368,-0.1808 2.6124,-5.8935 13.805,-9.3696 20.249,-23.142 -6.2844,0.60938 -12.95,1.3711 -14.283,0 2.9223,-11.889 7.9275,-18.57 12.836,-25.492 -13.45,-0.19973 -33.828,0.05235 -32.905,-1.0848 l 8.3165,-8.4973 c -13.138,-3.5372 -26.581,0.56816 -36.34,3.6159 -4.3819,-3.4577 0.0776,-7.83 5.4238,-12.294 -11.165,1.4906 -21.254,4.0574 -30.373,7.5934 -4.8724,-4.3993 3.1639,-8.7987 7.051,-13.198 -17.249,3.2726 -24.557,7.8707 -31.82,12.475 -5.2694,-5.0508 -0.30166,-9.3433 3.2543,-13.74 -13.006,4.817 -19.705,11.036 -26.758,17.175 -2.3912,-3.2271 -6.0749,-5.5924 -1.6272,-13.379 -9.2342,5.3227 -16.189,11.595 -21.334,18.622 -5.7134,-3.6379 -3.4039,-8.613 -3.4351,-13.198 -9.5966,7.8065 -15.687,16.114 -23.142,24.226 -1.5017,-1.0934 -2.8166,-4.8017 -3.9775,-10.667 -22.895,22.212 -55.246,78.158 -8.3165,100.34 39.919,-32.947 87.616,-56.888 140.48,-74.849 z"
         id="path3" /><path
         fill="#bc1142"
         d="m 365.2,521.85 a 71.956,66.532 0 1 1 -143.91,0 71.956,66.532 0 1 1 143.91,0 z"
         transform="matrix(1.131107,0,0,1.1280497,-43.139135,-68.310983)"
         id="path4" /><path
         fill="#bc1142"
         d="m 262.84,276.65 a 61.875,28.125 0 1 1 -123.75,0 61.875,28.125 0 1 1 123.75,0 z"
         transform="matrix(0.76741684,-1.1613112,2.171115,1.4224368,-560.88858,217.68859)"
         id="path5" /><path
         fill="#bc1142"
         d="m 262.84,276.65 a 61.875,28.125 0 1 1 -123.75,0 61.875,28.125 0 1 1 123.75,0 z"
         transform="matrix(-0.76741684,-1.1613112,-2.171115,1.4224368,1134.8288,213.68859)"
         id="path6" /><path
         fill="#bc1142"
         d="M 72.91,342.09 C 109.32,332.33 85.202,492.72 55.577,479.56 22.99,453.35 12.494,376.59 72.91,342.09 Z"
         id="path7" /><path
         fill="#bc1142"
         d="M 493.68,340.09 C 457.266,330.3331 481.388,490.73 511.013,477.57 543.6,451.357 554.096,374.59 493.68,340.09 Z"
         id="path8" /><path
         fill="#bc1142"
         d="m 369.97,220.65 c 62.835,-10.61 115.12,26.722 113.01,94.858 -2.0669,26.121 -136.16,-90.969 -113.01,-94.858 z"
         id="path9" /><path
         fill="#bc1142"
         d="M 196.36,218.65 C 133.52,208.04 81.24,245.38 83.35,313.51 85.417,339.63 219.51,222.54 196.36,218.65 Z"
         id="path10" /><path
         fill="#bc1142"
         d="m 286.62,202.76 c -37.503,-0.97548 -73.495,27.834 -73.582,44.544 -0.10462,20.304 29.651,41.093 73.837,41.62 45.123,0.32321 73.916,-16.64 74.061,-37.594 0.16484,-23.74 -41.039,-48.937 -74.317,-48.571 z"
         id="path11" /><path
         fill="#bc1142"
         d="m 288.91,619.12 c 32.697,-1.4271 76.571,10.532 76.657,26.396 0.5427,15.405 -39.79,50.211 -78.826,49.538 -40.427,1.7439 -80.069,-33.116 -79.55,-45.199 -0.60506,-17.716 49.226,-31.548 81.719,-30.735 z"
         id="path12" /><path
         fill="#bc1142"
         d="m 168.14,525.1 c 23.279,28.046 33.891,77.319 14.464,91.844 -18.379,11.088 -63.012,6.5216 -94.736,-39.052 -21.395,-38.242 -18.638,-77.157 -3.6159,-88.589 22.464,-13.684 57.173,4.799 83.889,35.797 z"
         id="path13" /><path
         fill="#bc1142"
         d="m 405.02,516.21 c -25.187,29.502 -39.212,83.31 -20.838,100.64 17.568,13.464 64.729,11.582 99.566,-36.756 25.296,-32.465 16.82,-86.682 2.3708,-101.08 -21.464,-16.602 -52.277,4.6449 -81.099,37.188 z"
         id="path14" /></g><text
       xml:space="preserve"
       style="font-weight:bold;font-size:5.6624px;line-height:0.98em;font-family:Urbanist;-inkscape-font-specification:'Urbanist Bold';text-align:start;text-anchor:start;fill:#bc1142;stroke:#bc1142;stroke-width:0.1;stroke-linecap:round;stroke-linejoin:round;stroke-miterlimit:0.2;stroke-dasharray:none;stroke-opacity:1"
       x="36.132092"
       y="5.5116811"
       id="text1"><tspan
         style="line-height:0.98em;text-align:start;text-anchor:start;stroke:#bc1142;stroke-width:0.1;stroke-dasharray:none;stroke-opacity:1"
         x="36.132092"
         y="5.5116811"
         id="tspan2">Rpi</tspan><tspan
         style="line-height:0.98em;text-align:start;text-anchor:start;stroke:#bc1142;stroke-width:0.1;stroke-dasharray:none;stroke-opacity:1"
         x="36.132092"
         y="11.060833"
         id="tspan3">headless</tspan><tspan
         style="line-height:0.98em;text-align:start;text-anchor:start;stroke:#bc1142;stroke-width:0.1;stroke-dasharray:none;stroke-opacity:1"
         x="36.132092"
         y="16.609985"
         id="tspan4">wifi connect</tspan></text></g></svg>
